# Blender v2.83.5 OBJ File: ''
# www.blender.org
mtllib NZXT H500I.mtl
o Cube.002
v 0.102993 -0.212149 -0.213591
v 0.094701 -0.241471 -0.205299
v 0.102993 -0.212149 -0.169209
v 0.094701 -0.241471 -0.177501
v 0.058611 -0.212149 -0.213591
v 0.066903 -0.241471 -0.205299
v 0.058611 -0.212149 -0.169209
v 0.066903 -0.241471 -0.177501
v 0.102993 -0.212149 0.164698
v 0.094701 -0.241471 0.172990
v 0.102993 -0.212149 0.209080
v 0.094701 -0.241471 0.200788
v 0.058611 -0.212149 0.164698
v 0.066903 -0.241471 0.172990
v 0.058611 -0.212149 0.209080
v 0.066903 -0.241471 0.200788
v -0.057473 -0.212149 0.164698
v -0.065766 -0.241471 0.172990
v -0.057473 -0.212149 0.209080
v -0.065766 -0.241471 0.200788
v -0.101856 -0.212149 0.164698
v -0.093563 -0.241471 0.172990
v -0.101856 -0.212149 0.209080
v -0.093563 -0.241471 0.200788
v -0.057473 -0.212149 -0.212947
v -0.065766 -0.241471 -0.204654
v -0.057473 -0.212149 -0.168564
v -0.065766 -0.241471 -0.176857
v -0.101856 -0.212149 -0.212947
v -0.093563 -0.241471 -0.204654
v -0.101856 -0.212149 -0.168564
v -0.093563 -0.241471 -0.176857
v 0.105000 0.217500 -0.214000
v 0.105000 -0.217500 -0.214000
v 0.105000 0.217500 0.214000
v 0.105000 -0.217500 0.214000
v 0.087314 0.191031 -0.187531
v 0.087314 -0.191031 -0.187531
v 0.087314 0.191031 0.187531
v 0.087314 -0.191031 0.209973
v -0.105000 -0.217500 -0.214000
v -0.105000 -0.217500 0.214000
v -0.105000 0.217500 0.214000
v -0.105000 0.217500 -0.214000
v 0.087314 -0.114632 0.209973
v 0.087314 -0.114632 -0.187531
v -0.083974 -0.191031 -0.187531
v -0.083974 -0.191031 0.209973
v -0.083974 -0.114632 -0.187531
v -0.083974 -0.114632 0.209973
vt 0.583871 0.907018
vt 0.583871 0.907018
vt 0.583871 0.907018
vt 0.583871 0.907018
vt 0.583871 0.907018
vt 0.583871 0.907018
vt 0.583871 0.907018
vt 0.583871 0.907018
vt 0.583871 0.907018
vt 0.583871 0.907018
vt 0.583871 0.907018
vt 0.583871 0.907018
vt 0.583871 0.907018
vt 0.583871 0.907018
vt 0.583871 0.907018
vt 0.583871 0.907018
vt 0.583871 0.907018
vt 0.583871 0.907018
vt 0.583871 0.907018
vt 0.583871 0.907018
vt 0.583871 0.907018
vt 0.583871 0.907018
vt 0.583871 0.907018
vt 0.583871 0.907018
vt 0.583871 0.907018
vt 0.583871 0.907018
vt 0.583871 0.907018
vt 0.583871 0.907018
vt 0.583871 0.907018
vt 0.583871 0.907018
vt 0.583871 0.907018
vt 0.583871 0.907018
vt 0.314617 0.423490
vt 0.325421 0.175937
vt 0.209583 0.156976
vt 0.212104 0.423675
vt 0.209970 0.517661
vt 0.013861 0.513190
vt 0.013880 0.993808
vt 0.194284 0.942091
vt 0.889057 0.265503
vt 0.606777 0.256264
vt 0.605911 0.643943
vt 0.881303 0.693701
vt 0.245161 0.260088
vt 0.245161 0.260088
vt 0.245161 0.260088
vt 0.245161 0.260088
vt 0.069355 0.370614
vt 0.069355 0.370614
vt 0.069355 0.370614
vt 0.069355 0.370614
vt 0.409536 0.451893
vt 0.251461 0.464755
vt 0.233484 0.991118
vt 0.415199 0.992953
vt 0.672235 0.252105
vt 0.672070 0.170286
vt 0.497898 0.180274
vt 0.504078 0.254512
vt 0.335551 0.266966
vt 0.335551 0.266966
vt 0.335551 0.266966
vt 0.335551 0.266966
vt 0.335551 0.266966
vt 0.591753 0.265464
vt 0.497082 0.265420
vt 0.514976 0.626996
vt 0.608959 0.578737
vt 0.595193 0.328108
vt 0.528690 0.657205
vt 0.503047 0.685815
vt 0.941599 0.776984
vt 0.913817 0.733488
vt 0.721134 0.252614
vt 0.716256 0.160067
vt 0.517808 0.163166
vt 0.525958 0.259260
vt 0.723054 0.223132
vt 0.642522 0.223383
vt 0.642460 0.250860
vt 0.722505 0.253480
vt 0.335551 0.266966
vt 0.335551 0.266966
vt 0.595193 0.328108
vt 0.591753 0.265464
vt 0.504078 0.254512
vt 0.672235 0.252105
vt 0.000000 0.000000
vt 0.000000 0.000000
vt 0.000000 0.000000
vt 0.000000 0.000000
vn 0.9623 -0.2721 0.0000
vn 0.0000 -0.2721 0.9623
vn -0.9623 -0.2721 0.0000
vn 0.0000 -0.2721 -0.9623
vn 0.0000 1.0000 0.0000
vn 0.0000 -1.0000 0.0000
vn 0.0000 0.0000 -1.0000
vn 1.0000 0.0000 0.0000
vn -1.0000 0.0000 0.0000
vn 0.0000 0.0000 1.0000
vn 0.1363 -0.9907 0.0000
vn 0.0682 0.0274 0.9973
vn 0.1363 0.0000 -0.9907
vn 0.1363 0.9907 0.0000
usemtl Material
s off
f 1/1/1 3/2/1 4/3/1 2/4/1
f 3/2/2 7/5/2 8/6/2 4/3/2
f 7/5/3 5/7/3 6/8/3 8/6/3
f 5/7/4 1/1/4 2/4/4 6/8/4
f 3/2/5 1/1/5 5/7/5 7/5/5
f 8/6/6 6/8/6 2/4/6 4/3/6
f 9/9/1 11/10/1 12/11/1 10/12/1
f 11/10/2 15/13/2 16/14/2 12/11/2
f 15/13/3 13/15/3 14/16/3 16/14/3
f 13/15/4 9/9/4 10/12/4 14/16/4
f 11/10/5 9/9/5 13/15/5 15/13/5
f 16/14/6 14/16/6 10/12/6 12/11/6
f 17/17/1 19/18/1 20/19/1 18/20/1
f 19/18/2 23/21/2 24/22/2 20/19/2
f 23/21/3 21/23/3 22/24/3 24/22/3
f 21/23/4 17/17/4 18/20/4 22/24/4
f 19/18/5 17/17/5 21/23/5 23/21/5
f 24/22/6 22/24/6 18/20/6 20/19/6
f 25/25/1 27/26/1 28/27/1 26/28/1
f 27/26/2 31/29/2 32/30/2 28/27/2
f 31/29/3 29/31/3 30/32/3 32/30/3
f 29/31/4 25/25/4 26/28/4 30/32/4
f 27/26/5 25/25/5 29/31/5 31/29/5
f 32/30/6 30/32/6 26/28/6 28/27/6
f 33/33/6 35/34/6 43/35/6 44/36/6
f 36/37/7 42/38/7 43/39/7 35/40/7
f 45/41/8 46/42/8 37/43/8 39/44/8
f 41/45/5 42/46/5 36/47/5 34/48/5
f 34/49/9 36/50/9 35/51/9 33/52/9
f 41/53/10 34/54/10 33/55/10 44/56/10
f 40/57/11 42/58/11 41/59/11 38/60/11
f 39/61/12 43/62/12 42/63/12 40/64/12 45/65/12
f 38/66/13 41/67/13 44/68/13 37/69/13 46/70/13
f 37/71/14 44/72/14 43/73/14 39/74/14
f 45/75/6 50/76/6 49/77/6 46/78/6
f 48/79/8 47/80/8 49/81/8 50/82/8
f 40/64/7 48/83/7 50/84/7 45/65/7
f 46/70/10 49/85/10 47/86/10 38/66/10
f 38/60/5 47/87/5 48/88/5 40/57/5
usemtl Material.001
f 42/89/9 43/90/9 44/91/9 41/92/9
